
  <svg
    width="100%"
    height="100%"
    viewBox="0 0 1000 1000"
    xmlns="http://www.w3.org/2000/svg"
  >
  <defs>
      
    <filter id='doodle'>
      <feTurbulence 
        result="TURBULENCE" 
        baseFrequency="0.05369102957009536" 
        numOctaves="1" 
        seed="1" 
      />
      <feDisplacementMap in="SourceGraphic" in2="TURBULENCE" scale="20" />
    </filter>

    <filter id="offset-1">
      <feOffset dx="30" dy="0" result="OFFSET-1"/>
    </filter>

    <filter id="offset-2">
      <feOffset dx="20" dy="0" result="OFFSET-2"/>
    </filter>

    <filter id="offset-3">
      <feOffset dx="0" dy="50" result="OFFSET-3"/>
    </filter>

    <mask id="brush-mask">
      <rect x="0" y="0" width="1000" height="1000" fill="white" filterUnits="userSpaceOnUse"/>
      
  <circle 
    cx='537' 
    cy='691' 
    r='6px' 
    fill='black'  
    filter='url(#doodle)'
  />
  <circle 
    cx='517' 
    cy='608' 
    r='6px' 
    fill='black'  
    filter='url(#doodle)'
  />
  <circle 
    cx='317' 
    cy='259' 
    r='7px' 
    fill='black'  
    filter='url(#doodle)'
  />
  <circle 
    cx='763' 
    cy='499' 
    r='14px' 
    fill='black'  
    filter='url(#doodle)'
  />
  
      
    <g filter="url(#offset-1)" mask="url(#brush-mask)">
      <path
        fill="none"
        stroke-width="9px"
        stroke="black"
        d="M771 635.5 Q 660.7900497985931 789.4217069701458 473.5 817"
        filter="url(#doodle)"    
      />
    </g>
    <g filter="url(#offset-2)" mask="url(#brush-mask)"  transform="scale(0.6)" transform-origin="center">
      <path
        fill="none"
        stroke-width="7px"
        stroke="black"
        d="M771 635.5 Q 660.2692383148284 788.5680352543329 473.5 817"
        filter="url(#doodle)"
      />
    </g>


    <g filter="url(#offset-3)">
      <path
        fill="none"
        stroke-width="5px"
        stroke="black"
        d="M212 681.5 Q 109.79019293833692 505.3174800372704 221.5 335"
        filter="url(#doodle)"
      />
    </g>


    <g filter="url(#offset-3)">
      <path
        fill="none"
        stroke-width="8px"
        stroke="black"
        d="M491 185.5 Q 691.670767170086 169.083751848577 779 350.5"
        filter="url(#doodle)"
      />
    </g>


    </mask>

      
      
      <clipPath id="shape">
        <path fill="currentColor" d="M771,635.5Q657,771,473.5,817Q290,863,212,681.5Q134,500,221.5,335Q309,170,491,185.5Q673,201,779,350.5Q885,500,771,635.5Z"></path>
      </clipPath> 
    </defs>
  
    <g  mask="url(#brush-mask)">
      <path
        filter='url(#doodle)'
        fill="#addef4"
        d="M771,635.5Q657,771,473.5,817Q290,863,212,681.5Q134,500,221.5,335Q309,170,491,185.5Q673,201,779,350.5Q885,500,771,635.5Z"  
      />
    </g>
  
  </svg>